<svg width="20" height="20" viewBox="0 0 20 20" fill="none" xmlns="http://www.w3.org/2000/svg">
<path d="M17.5 13.8517V6.14853C17.4994 6.03727 17.4695 5.92812 17.4132 5.83211C17.357 5.73609 17.2764 5.65661 17.1797 5.60166L10.3047 1.73447C10.2121 1.68099 10.107 1.65283 10 1.65283C9.89303 1.65283 9.78795 1.68099 9.69531 1.73447L2.82031 5.60166C2.72356 5.65661 2.643 5.73609 2.58676 5.83211C2.53052 5.92812 2.5006 6.03727 2.5 6.14853V13.8517C2.5006 13.9629 2.53052 14.0721 2.58676 14.1681C2.643 14.2641 2.72356 14.3436 2.82031 14.3985L9.69531 18.2657C9.78795 18.3192 9.89303 18.3474 10 18.3474C10.107 18.3474 10.2121 18.3192 10.3047 18.2657L17.1797 14.3985C17.2764 14.3436 17.357 14.2641 17.4132 14.1681C17.4695 14.0721 17.4994 13.9629 17.5 13.8517V13.8517Z" stroke="#404040" stroke-width="2" stroke-linecap="round" stroke-linejoin="round"/>
<path d="M13.8281 11.9141V7.85156L6.25 3.67188" stroke="#404040" stroke-width="2" stroke-linecap="round" stroke-linejoin="round"/>
<path d="M17.4138 5.82797L10.0701 9.99985L2.58569 5.82797" stroke="#404040" stroke-width="2" stroke-linecap="round" stroke-linejoin="round"/>
<path d="M10.0703 10L10 18.3438" stroke="#404040" stroke-width="2" stroke-linecap="round" stroke-linejoin="round"/>
</svg>
